<svg xmlns="http://www.w3.org/2000/svg" viewBox="0 0 720 200" width="720" height="200">
	<style>
		tspan { white-space:pre }
		.shp0 { fill: #999999 } 
		.shp1 { fill: #3774cb } 
		.shp2 { fill: #000000 } 
		.shp3 { fill: #eeeeee } 
	</style>
	<g id="Page-1">
		<g id="aws_background">
			<path id="Rectangle-134-Copy" class="shp0" d="M0,203h720v-207h-720z" />
			<g id="Rectangle-140">
				<path id="path-1" class="shp1" d="M764.93,216.07l154.15,-154.15l-108.93,-108.93l-154.15,154.15z" />
				<path id="path-1" class="shp1" d="M764.93,216.07l154.15,-154.15l-108.93,-108.93l-154.15,154.15z" />
			</g>
			<g id="Rectangle-133-Copy-4">
				<path id="path-3" class="shp2" d="M574.25,185.54l424.83,-410.25l-226.25,-234.29l-424.83,410.25z" />
				<path id="path-3" class="shp3" d="M574.25,185.54l424.83,-410.25l-226.25,-234.29l-424.83,410.25z" />
			</g>
			<g id="Rectangle-133-Copy-3">
				<path id="path-5" class="shp2" d="M491.25,109.54l424.83,-410.25l-56.09,-58.09l-424.83,410.25z" />
				<path id="path-5" class="shp0" d="M491.25,109.54l424.83,-410.25l-56.09,-58.09l-424.83,410.25z" />
			</g>
			<g id="Rectangle-133-Copy-2">
				<path id="path-7" class="shp2" d="M477.24,87.47l435.12,-420.19l-226.25,-234.29l-435.12,420.19z" />
				<path id="path-7" class="shp3" d="M477.24,87.47l435.12,-420.19l-226.25,-234.29l-435.12,420.19z" />
			</g>
			<path id="Rectangle-133-Copy-5" class="shp1" d="M248,467.58l314.74,-303.94l-507.24,-525.27l-314.74,303.94z" />
		</g>
	</g>
</svg>